<svg width="24" height="17" viewBox="0 0 24 17" fill="none" xmlns="http://www.w3.org/2000/svg">
<path d="M11.3076 3.26234L11.7254 3.89769L12.1432 3.26235C12.4993 2.72075 13.101 1.98186 13.9979 1.40465L13.7313 0.990496L13.9979 1.40464C14.9285 0.805687 15.9851 0.5 17.1489 0.5C20.4263 0.5 22.7956 2.70826 22.7956 5.54809C22.7956 7.07115 22.0696 8.39022 20.6691 9.79653C19.2582 11.2134 17.2274 12.6555 14.7194 14.4341L14.7193 14.4341L14.719 14.4344C13.8713 15.0355 12.9085 15.7184 11.9072 16.4471L11.907 16.4472C11.8676 16.4759 11.8036 16.5 11.7254 16.5C11.6473 16.5 11.5833 16.4759 11.5439 16.4472L11.5436 16.447C10.5429 15.7188 9.58047 15.0362 8.73357 14.4356L8.73204 14.4345L8.73203 14.4345C6.22369 12.6557 4.19283 11.2135 2.78177 9.79658C1.3812 8.39022 0.655273 7.07114 0.655273 5.54809C0.655273 2.70826 3.0245 0.5 6.30192 0.5C7.46574 0.5 8.52231 0.805687 9.45297 1.40464L9.71951 0.990496L9.45297 1.40465C10.3498 1.98186 10.9515 2.72072 11.3076 3.26234Z" stroke="#677294" stroke-opacity="0.5"/>
</svg>
