<svg width="32" height="32" viewBox="0 0 32 32" fill="none" xmlns="http://www.w3.org/2000/svg">
<path fill-rule="evenodd" clip-rule="evenodd" d="M30 23C30 24.104 29.104 25 28 25H25.858C25.413 23.278 23.862 22 22 22H10C8.138 22 6.587 23.278 6.142 25H4C2.896 25 2 24.104 2 23V21C2 19.896 2.896 19 4 19H28C29.104 19 30 19.896 30 21V23ZM22 28H10C8.896 28 8 27.104 8 26C8 24.896 8.896 24 10 24H22C23.104 24 24 24.896 24 26C24 27.104 23.104 28 22 28ZM8 6C8 4.896 8.896 4 10 4H22C23.104 4 24 4.896 24 6V17H8V6ZM28 17H26V6C26 3.791 24.209 2 22 2H10C7.791 2 6 3.791 6 6V17H4C1.791 17 0 18.791 0 21V23C0 25.209 1.791 27 4 27H6.142C6.587 28.723 8.138 30 10 30H22C23.862 30 25.413 28.723 25.858 27H28C30.209 27 32 25.209 32 23V21C32 18.791 30.209 17 28 17Z" fill="#D8AD5D"/>
</svg>
