<svg width="32" height="32" viewBox="0 0 32 32" fill="none" xmlns="http://www.w3.org/2000/svg">
<path fill-rule="evenodd" clip-rule="evenodd" d="M4.66637 16C4.66637 9.74077 9.74048 4.66667 15.9997 4.66667C22.2589 4.66667 27.333 9.74077 27.333 16C27.333 22.2592 22.2589 27.3333 15.9997 27.3333C13.7701 27.3333 11.6947 26.6909 9.94365 25.5815C9.61777 25.3751 9.21845 25.3199 8.8488 25.4301L5.00993 26.5759L6.45532 23.1937C6.62616 22.794 6.5914 22.3361 6.36217 21.9668C5.28728 20.2347 4.66637 18.1919 4.66637 16ZM15.9997 2C8.26772 2 1.9997 8.26801 1.9997 16C1.9997 18.4508 2.63056 20.7577 3.73921 22.7636L1.4403 28.1427C1.23707 28.6183 1.32716 29.1684 1.67144 29.5543C2.01572 29.9403 2.5521 30.0923 3.04766 29.9443L9.04689 28.154C11.0963 29.3287 13.4713 30 15.9997 30C23.7317 30 29.9997 23.732 29.9997 16C29.9997 8.26801 23.7317 2 15.9997 2ZM19.0563 18.9099L17.3041 20.1441C16.4834 19.6767 15.5761 19.0241 14.6659 18.114C13.7198 17.1679 13.0184 16.1911 12.5012 15.2951L13.6147 14.3499C14.0926 13.9443 14.2234 13.2604 13.929 12.707L12.5101 10.0404C12.3191 9.68129 11.9746 9.42907 11.5745 9.35539C11.1745 9.28172 10.7628 9.39467 10.4563 9.66212L10.0356 10.0293C9.02398 10.9122 8.42568 12.3631 8.92156 13.8321C9.43565 15.3551 10.5328 17.752 12.7804 19.9996C15.1985 22.4177 17.6547 23.37 19.0911 23.7399C20.2485 24.0377 21.3437 23.6384 22.1154 23.0096L22.9041 22.3669C23.2414 22.0921 23.4234 21.6699 23.3917 21.2359C23.3598 20.8019 23.1182 20.4107 22.7443 20.1879L20.5066 18.8545C20.0546 18.5853 19.4866 18.6069 19.0563 18.9099Z" fill="#D8AD5D"/>
</svg>
