<svg width="32" height="32" viewBox="0 0 32 32" fill="none" xmlns="http://www.w3.org/2000/svg">
<path d="M18.03 15.7365L17.274 15.3145L17.9313 14.7462C18.7037 14.097 19.9855 12.6197 19.9855 10.0792C19.9853 6.18316 16.9287 3.66699 12.2042 3.66699H6.20583C4.79866 3.71466 3.67949 4.84916 3.66699 6.23999V28.3173H12.311C17.5697 28.3173 20.9552 25.4928 20.9552 21.1097C20.9552 18.756 19.8623 16.7268 18.0135 15.7122M12.6643 24.1697H8.47383V19.2187C8.47383 18.1637 8.88466 17.5953 9.80483 17.4817H12.6808C13.1325 17.4443 13.5869 17.505 14.0129 17.6595C14.4389 17.8141 14.8265 18.0589 15.1492 18.3772C15.4692 18.6929 15.7157 19.0753 15.8714 19.4971C16.027 19.9188 16.0879 20.3697 16.0497 20.8177C16.0497 22.928 14.7597 24.186 12.6808 24.186L12.6643 24.1697ZM8.46549 10.7853V9.48666C8.46549 8.35033 8.95849 7.79833 10.0268 7.73333H12.1795C14.0202 7.73333 15.1377 8.82116 15.1377 10.6555C15.1377 12.0353 14.3817 13.6587 12.2617 13.6587H8.48199L8.46549 10.7853Z" stroke="#787486" stroke-linejoin="round"/>
<path d="M25.323 27.3125C26.4096 27.3125 27.2905 26.4389 27.2905 25.3613C27.2905 24.2837 26.4096 23.4102 25.323 23.4102C24.2363 23.4102 23.3555 24.2837 23.3555 25.3613C23.3555 26.4389 24.2363 27.3125 25.323 27.3125Z" fill="#787486" stroke="#787486" stroke-linejoin="round"/>
</svg>
