<svg width="32" height="32" viewBox="0 0 32 32" fill="none" xmlns="http://www.w3.org/2000/svg">
<path d="M16.0001 15.6801C16.5303 15.6801 16.9601 15.2503 16.9601 14.7201C16.9601 14.1899 16.5303 13.7601 16.0001 13.7601V15.6801ZM7.04008 13.7601C6.50989 13.7601 6.08008 14.1899 6.08008 14.7201C6.08008 15.2503 6.50989 15.6801 7.04008 15.6801V13.7601ZM16.0001 13.7601C15.4699 13.7601 15.0401 14.1899 15.0401 14.7201C15.0401 15.2503 15.4699 15.6801 16.0001 15.6801V13.7601ZM24.9601 15.6801C25.4903 15.6801 25.9201 15.2503 25.9201 14.7201C25.9201 14.1899 25.4903 13.7601 24.9601 13.7601V15.6801ZM15.0401 14.7201C15.0401 15.2503 15.4699 15.6801 16.0001 15.6801C16.5303 15.6801 16.9601 15.2503 16.9601 14.7201H15.0401ZM16.9601 7.04008C16.9601 6.50989 16.5303 6.08008 16.0001 6.08008C15.4699 6.08008 15.0401 6.50989 15.0401 7.04008H16.9601ZM8.00008 14.7201C8.00008 14.1899 7.57027 13.7601 7.04008 13.7601C6.50989 13.7601 6.08008 14.1899 6.08008 14.7201H8.00008ZM25.9201 14.7201C25.9201 14.1899 25.4903 13.7601 24.9601 13.7601C24.4299 13.7601 24.0001 14.1899 24.0001 14.7201H25.9201ZM6.08008 14.7201C6.08008 15.2503 6.50989 15.6801 7.04008 15.6801C7.57027 15.6801 8.00008 15.2503 8.00008 14.7201H6.08008ZM16.0001 8.00008C16.5303 8.00008 16.9601 7.57027 16.9601 7.04008C16.9601 6.50989 16.5303 6.08008 16.0001 6.08008V8.00008ZM24.0001 14.7201C24.0001 15.2503 24.4299 15.6801 24.9601 15.6801C25.4903 15.6801 25.9201 15.2503 25.9201 14.7201H24.0001ZM16.0001 6.08008C15.4699 6.08008 15.0401 6.50989 15.0401 7.04008C15.0401 7.57027 15.4699 8.00008 16.0001 8.00008V6.08008ZM16.0001 13.7601H7.04008V15.6801H16.0001V13.7601ZM16.0001 15.6801H24.9601V13.7601H16.0001V15.6801ZM16.9601 14.7201V7.04008H15.0401V14.7201H16.9601ZM6.08008 14.7201V19.8401H8.00008V14.7201H6.08008ZM6.08008 19.8401C6.08008 23.198 8.80219 25.9201 12.1601 25.9201V24.0001C9.86257 24.0001 8.00008 22.1375 8.00008 19.8401H6.08008ZM12.1601 25.9201H19.8401V24.0001H12.1601V25.9201ZM19.8401 25.9201C23.198 25.9201 25.9201 23.198 25.9201 19.8401H24.0001C24.0001 22.1375 22.1376 24.0001 19.8401 24.0001V25.9201ZM25.9201 19.8401V14.7201H24.0001V19.8401H25.9201ZM8.00008 14.7201V12.1601H6.08008V14.7201H8.00008ZM8.00008 12.1601C8.00008 9.86257 9.86257 8.00008 12.1601 8.00008V6.08008C8.80219 6.08008 6.08008 8.80219 6.08008 12.1601H8.00008ZM12.1601 8.00008H16.0001V6.08008H12.1601V8.00008ZM25.9201 14.7201V12.1601H24.0001V14.7201H25.9201ZM25.9201 12.1601C25.9201 8.80219 23.198 6.08008 19.8401 6.08008V8.00008C22.1376 8.00008 24.0001 9.86257 24.0001 12.1601H25.9201ZM19.8401 6.08008H16.0001V8.00008H19.8401V6.08008Z" fill="#787486"/>
</svg>
