<svg width="27" height="27" viewBox="0 0 27 27" fill="none" xmlns="http://www.w3.org/2000/svg">
<path d="M10.199 12.1189C10.0877 12.1078 9.95404 12.1078 9.83156 12.1189C7.18156 12.0297 5.07715 9.85562 5.07715 7.17978C5.07715 4.4482 7.28177 2.22949 10.0208 2.22949C12.7488 2.22949 14.9645 4.4482 14.9645 7.17978C14.9534 9.85562 12.849 12.0297 10.199 12.1189Z" stroke="#787486" stroke-width="1.5" stroke-linecap="round" stroke-linejoin="round"/>
<path d="M18.2717 4.45996C20.4318 4.45996 22.1688 6.2104 22.1688 8.36222C22.1688 10.4694 20.4986 12.1864 18.4164 12.2645C18.3274 12.2533 18.2272 12.2533 18.127 12.2645" stroke="#787486" stroke-width="1.5" stroke-linecap="round" stroke-linejoin="round"/>
<path d="M4.63223 16.2334C1.93769 18.0396 1.93769 20.983 4.63223 22.778C7.69421 24.8295 12.7158 24.8295 15.7778 22.778C18.4724 20.9718 18.4724 18.0284 15.7778 16.2334C12.727 14.193 7.70534 14.193 4.63223 16.2334Z" stroke="#787486" stroke-width="1.5" stroke-linecap="round" stroke-linejoin="round"/>
<path d="M20.4209 22.299C21.2226 22.1317 21.9797 21.8084 22.6033 21.329C24.3402 20.0245 24.3402 17.8727 22.6033 16.5682C21.9909 16.0999 21.2448 15.7878 20.4543 15.6094" stroke="#787486" stroke-width="1.5" stroke-linecap="round" stroke-linejoin="round"/>
</svg>
