<svg width="32" height="32" viewBox="0 0 32 32" fill="none" xmlns="http://www.w3.org/2000/svg">
<mask id="path-1-outside-1_12_1750" maskUnits="userSpaceOnUse" x="3.5" y="3.26074" width="25" height="24" fill="black">
<rect fill="white" x="3.5" y="3.26074" width="25" height="24"/>
<path d="M27.9942 18.237L26.6875 16.0558C27.2669 15.6402 27.6863 15.0499 27.8619 14.3505C28.0582 13.5685 27.938 12.7568 27.5235 12.0649L24.916 7.70916C24.1042 6.35276 22.3883 5.86671 20.9947 6.55271L19.6943 4.38201C19.6445 4.29876 19.5571 4.25361 19.4541 4.26166C19.3579 4.27166 19.2759 4.33661 19.2437 4.42841C18.9796 5.18971 18.5912 5.96721 18.1003 6.74441C17.2476 5.61426 16.2064 4.70036 14.75 4.52921V4.50041H5.75C5.06055 4.50041 4.5 5.06121 4.5 5.75041V12.2504C4.5 12.9396 5.06055 13.5004 5.75 13.5004H10.7545L9.3667 14.4604C8.76075 14.8832 8.19045 15.3659 7.6719 15.8952C7.29915 16.2742 7.22725 16.8526 7.4909 17.3092L7.3086 17.4184C6.3169 18.0121 6.0713 19.4318 6.76025 20.5829L7.60155 21.988C8.08545 22.7958 8.9028 23.2602 9.6904 23.2602C10.0248 23.2602 10.3544 23.1762 10.6498 22.9994L10.833 22.8898C11.0521 23.2396 11.4317 23.4442 11.83 23.4442C11.9413 23.4442 12.0536 23.4284 12.1644 23.3956C12.5844 23.2747 12.9886 23.1262 13.3821 22.9634C13.6887 23.0245 14.8472 23.3156 15.8759 24.37C16.4272 24.9349 16.8388 25.6224 17.0658 26.3575C17.0981 26.4625 17.1952 26.5338 17.3046 26.5338H17.3065L21.7519 26.5003C21.8417 26.4996 21.9247 26.4505 21.9681 26.3719C22.0121 26.2933 22.0101 26.1971 21.9632 26.1202C21.847 25.9296 21.7328 25.7386 21.618 25.5465C20.7466 24.0883 19.8438 22.5817 17.7977 20.7516L19.0986 20.0858C19.1572 20.0579 23.6484 17.9667 27.7407 18.6124C27.8388 18.6278 27.9326 18.5855 27.9867 18.5052C28.0415 18.4246 28.044 18.3203 27.9942 18.237ZM24.4873 7.96601L27.0947 12.3217C27.7639 13.4396 27.4533 14.8638 26.43 15.626L21.2581 6.99246C22.4139 6.44786 23.8172 6.84766 24.4873 7.96601ZM5 12.2505V5.75046C5 5.33691 5.33645 5.00046 5.75 5.00046H14.25C16.5527 5.00046 17.8364 7.09471 18.9599 9.00046C17.8393 10.9009 16.5556 13.0005 14.25 13.0005H5.75C5.33645 13.0005 5 12.664 5 12.2505ZM8.03025 21.7312L7.18895 20.3261C6.6416 19.4116 6.81055 18.2995 7.5654 17.8476L7.74625 17.7393L10.5738 22.462L10.3931 22.5703C9.6367 23.0224 8.5781 22.645 8.03025 21.7312ZM21.1889 25.8032L21.309 26.0039L17.4853 26.0324C17.2255 25.289 16.7954 24.5969 16.2334 24.021C15.4729 23.2414 14.6536 22.8431 14.0861 22.6431C14.1324 22.62 14.1832 22.6019 14.2289 22.5781L17.32 20.9962C19.4123 22.8349 20.317 24.3438 21.1889 25.8032ZM14 22.1335C13.3877 22.4513 12.7236 22.7145 12.0244 22.9157C11.7265 23.0036 11.4082 22.8808 11.2495 22.6171L7.9292 17.0715C7.76955 16.8068 7.81055 16.4672 8.0288 16.2455C8.52585 15.7382 9.07225 15.2756 9.65185 14.871L11.633 13.5004H14.25C14.4637 13.5004 14.6663 13.4801 14.8639 13.4511L18.6386 19.7597L14 22.1335ZM19.0903 19.5412L15.3794 13.3393C17.3033 12.787 18.442 10.8651 19.4653 9.12731C19.5117 9.04896 19.5068 8.94396 19.4609 8.86586C19.1321 8.30781 18.7905 7.73041 18.4153 7.18436C18.8724 6.48291 19.2485 5.77866 19.5312 5.08266L27.2992 18.0502C23.6604 17.6645 19.9866 19.1479 19.0903 19.5412ZM13.2788 7.34691L9.44335 11.0154C9.395 11.0618 9.3325 11.0847 9.2705 11.0847C9.2046 11.0847 9.13915 11.0588 9.08985 11.0076C8.99465 10.9077 8.99805 10.7495 9.09765 10.6541L12.9331 6.98561C13.0332 6.89016 13.1909 6.89406 13.2866 6.99341C13.3818 7.09326 13.3784 7.25146 13.2788 7.34691ZM10 8.50046C10.5512 8.50046 11 8.05196 11 7.50046C11 6.94896 10.5512 6.50046 10 6.50046C9.44875 6.50046 9 6.94896 9 7.50046C9 8.05196 9.44875 8.50046 10 8.50046ZM10 7.00046C10.2759 7.00046 10.5 7.22481 10.5 7.50046C10.5 7.77611 10.2759 8.00046 10 8.00046C9.7241 8.00046 9.5 7.77611 9.5 7.50046C9.5 7.22481 9.7241 7.00046 10 7.00046ZM12.5 9.50046C11.9488 9.50046 11.5 9.94896 11.5 10.5005C11.5 11.052 11.9488 11.5005 12.5 11.5005C13.0513 11.5005 13.5 11.052 13.5 10.5005C13.5 9.94896 13.0513 9.50046 12.5 9.50046ZM12.5 11.0005C12.2241 11.0005 12 10.7761 12 10.5005C12 10.2248 12.2241 10.0005 12.5 10.0005C12.7759 10.0005 13 10.2248 13 10.5005C13 10.7761 12.7759 11.0005 12.5 11.0005Z"/>
</mask>
<path d="M27.9942 18.237L26.6875 16.0558C27.2669 15.6402 27.6863 15.0499 27.8619 14.3505C28.0582 13.5685 27.938 12.7568 27.5235 12.0649L24.916 7.70916C24.1042 6.35276 22.3883 5.86671 20.9947 6.55271L19.6943 4.38201C19.6445 4.29876 19.5571 4.25361 19.4541 4.26166C19.3579 4.27166 19.2759 4.33661 19.2437 4.42841C18.9796 5.18971 18.5912 5.96721 18.1003 6.74441C17.2476 5.61426 16.2064 4.70036 14.75 4.52921V4.50041H5.75C5.06055 4.50041 4.5 5.06121 4.5 5.75041V12.2504C4.5 12.9396 5.06055 13.5004 5.75 13.5004H10.7545L9.3667 14.4604C8.76075 14.8832 8.19045 15.3659 7.6719 15.8952C7.29915 16.2742 7.22725 16.8526 7.4909 17.3092L7.3086 17.4184C6.3169 18.0121 6.0713 19.4318 6.76025 20.5829L7.60155 21.988C8.08545 22.7958 8.9028 23.2602 9.6904 23.2602C10.0248 23.2602 10.3544 23.1762 10.6498 22.9994L10.833 22.8898C11.0521 23.2396 11.4317 23.4442 11.83 23.4442C11.9413 23.4442 12.0536 23.4284 12.1644 23.3956C12.5844 23.2747 12.9886 23.1262 13.3821 22.9634C13.6887 23.0245 14.8472 23.3156 15.8759 24.37C16.4272 24.9349 16.8388 25.6224 17.0658 26.3575C17.0981 26.4625 17.1952 26.5338 17.3046 26.5338H17.3065L21.7519 26.5003C21.8417 26.4996 21.9247 26.4505 21.9681 26.3719C22.0121 26.2933 22.0101 26.1971 21.9632 26.1202C21.847 25.9296 21.7328 25.7386 21.618 25.5465C20.7466 24.0883 19.8438 22.5817 17.7977 20.7516L19.0986 20.0858C19.1572 20.0579 23.6484 17.9667 27.7407 18.6124C27.8388 18.6278 27.9326 18.5855 27.9867 18.5052C28.0415 18.4246 28.044 18.3203 27.9942 18.237ZM24.4873 7.96601L27.0947 12.3217C27.7639 13.4396 27.4533 14.8638 26.43 15.626L21.2581 6.99246C22.4139 6.44786 23.8172 6.84766 24.4873 7.96601ZM5 12.2505V5.75046C5 5.33691 5.33645 5.00046 5.75 5.00046H14.25C16.5527 5.00046 17.8364 7.09471 18.9599 9.00046C17.8393 10.9009 16.5556 13.0005 14.25 13.0005H5.75C5.33645 13.0005 5 12.664 5 12.2505ZM8.03025 21.7312L7.18895 20.3261C6.6416 19.4116 6.81055 18.2995 7.5654 17.8476L7.74625 17.7393L10.5738 22.462L10.3931 22.5703C9.6367 23.0224 8.5781 22.645 8.03025 21.7312ZM21.1889 25.8032L21.309 26.0039L17.4853 26.0324C17.2255 25.289 16.7954 24.5969 16.2334 24.021C15.4729 23.2414 14.6536 22.8431 14.0861 22.6431C14.1324 22.62 14.1832 22.6019 14.2289 22.5781L17.32 20.9962C19.4123 22.8349 20.317 24.3438 21.1889 25.8032ZM14 22.1335C13.3877 22.4513 12.7236 22.7145 12.0244 22.9157C11.7265 23.0036 11.4082 22.8808 11.2495 22.6171L7.9292 17.0715C7.76955 16.8068 7.81055 16.4672 8.0288 16.2455C8.52585 15.7382 9.07225 15.2756 9.65185 14.871L11.633 13.5004H14.25C14.4637 13.5004 14.6663 13.4801 14.8639 13.4511L18.6386 19.7597L14 22.1335ZM19.0903 19.5412L15.3794 13.3393C17.3033 12.787 18.442 10.8651 19.4653 9.12731C19.5117 9.04896 19.5068 8.94396 19.4609 8.86586C19.1321 8.30781 18.7905 7.73041 18.4153 7.18436C18.8724 6.48291 19.2485 5.77866 19.5312 5.08266L27.2992 18.0502C23.6604 17.6645 19.9866 19.1479 19.0903 19.5412ZM13.2788 7.34691L9.44335 11.0154C9.395 11.0618 9.3325 11.0847 9.2705 11.0847C9.2046 11.0847 9.13915 11.0588 9.08985 11.0076C8.99465 10.9077 8.99805 10.7495 9.09765 10.6541L12.9331 6.98561C13.0332 6.89016 13.1909 6.89406 13.2866 6.99341C13.3818 7.09326 13.3784 7.25146 13.2788 7.34691ZM10 8.50046C10.5512 8.50046 11 8.05196 11 7.50046C11 6.94896 10.5512 6.50046 10 6.50046C9.44875 6.50046 9 6.94896 9 7.50046C9 8.05196 9.44875 8.50046 10 8.50046ZM10 7.00046C10.2759 7.00046 10.5 7.22481 10.5 7.50046C10.5 7.77611 10.2759 8.00046 10 8.00046C9.7241 8.00046 9.5 7.77611 9.5 7.50046C9.5 7.22481 9.7241 7.00046 10 7.00046ZM12.5 9.50046C11.9488 9.50046 11.5 9.94896 11.5 10.5005C11.5 11.052 11.9488 11.5005 12.5 11.5005C13.0513 11.5005 13.5 11.052 13.5 10.5005C13.5 9.94896 13.0513 9.50046 12.5 9.50046ZM12.5 11.0005C12.2241 11.0005 12 10.7761 12 10.5005C12 10.2248 12.2241 10.0005 12.5 10.0005C12.7759 10.0005 13 10.2248 13 10.5005C13 10.7761 12.7759 11.0005 12.5 11.0005Z" fill="#787486"/>
<path d="M27.9942 18.237L26.6875 16.0558C27.2669 15.6402 27.6863 15.0499 27.8619 14.3505C28.0582 13.5685 27.938 12.7568 27.5235 12.0649L24.916 7.70916C24.1042 6.35276 22.3883 5.86671 20.9947 6.55271L19.6943 4.38201C19.6445 4.29876 19.5571 4.25361 19.4541 4.26166C19.3579 4.27166 19.2759 4.33661 19.2437 4.42841C18.9796 5.18971 18.5912 5.96721 18.1003 6.74441C17.2476 5.61426 16.2064 4.70036 14.75 4.52921V4.50041H5.75C5.06055 4.50041 4.5 5.06121 4.5 5.75041V12.2504C4.5 12.9396 5.06055 13.5004 5.75 13.5004H10.7545L9.3667 14.4604C8.76075 14.8832 8.19045 15.3659 7.6719 15.8952C7.29915 16.2742 7.22725 16.8526 7.4909 17.3092L7.3086 17.4184C6.3169 18.0121 6.0713 19.4318 6.76025 20.5829L7.60155 21.988C8.08545 22.7958 8.9028 23.2602 9.6904 23.2602C10.0248 23.2602 10.3544 23.1762 10.6498 22.9994L10.833 22.8898C11.0521 23.2396 11.4317 23.4442 11.83 23.4442C11.9413 23.4442 12.0536 23.4284 12.1644 23.3956C12.5844 23.2747 12.9886 23.1262 13.3821 22.9634C13.6887 23.0245 14.8472 23.3156 15.8759 24.37C16.4272 24.9349 16.8388 25.6224 17.0658 26.3575C17.0981 26.4625 17.1952 26.5338 17.3046 26.5338H17.3065L21.7519 26.5003C21.8417 26.4996 21.9247 26.4505 21.9681 26.3719C22.0121 26.2933 22.0101 26.1971 21.9632 26.1202C21.847 25.9296 21.7328 25.7386 21.618 25.5465C20.7466 24.0883 19.8438 22.5817 17.7977 20.7516L19.0986 20.0858C19.1572 20.0579 23.6484 17.9667 27.7407 18.6124C27.8388 18.6278 27.9326 18.5855 27.9867 18.5052C28.0415 18.4246 28.044 18.3203 27.9942 18.237ZM24.4873 7.96601L27.0947 12.3217C27.7639 13.4396 27.4533 14.8638 26.43 15.626L21.2581 6.99246C22.4139 6.44786 23.8172 6.84766 24.4873 7.96601ZM5 12.2505V5.75046C5 5.33691 5.33645 5.00046 5.75 5.00046H14.25C16.5527 5.00046 17.8364 7.09471 18.9599 9.00046C17.8393 10.9009 16.5556 13.0005 14.25 13.0005H5.75C5.33645 13.0005 5 12.664 5 12.2505ZM8.03025 21.7312L7.18895 20.3261C6.6416 19.4116 6.81055 18.2995 7.5654 17.8476L7.74625 17.7393L10.5738 22.462L10.3931 22.5703C9.6367 23.0224 8.5781 22.645 8.03025 21.7312ZM21.1889 25.8032L21.309 26.0039L17.4853 26.0324C17.2255 25.289 16.7954 24.5969 16.2334 24.021C15.4729 23.2414 14.6536 22.8431 14.0861 22.6431C14.1324 22.62 14.1832 22.6019 14.2289 22.5781L17.32 20.9962C19.4123 22.8349 20.317 24.3438 21.1889 25.8032ZM14 22.1335C13.3877 22.4513 12.7236 22.7145 12.0244 22.9157C11.7265 23.0036 11.4082 22.8808 11.2495 22.6171L7.9292 17.0715C7.76955 16.8068 7.81055 16.4672 8.0288 16.2455C8.52585 15.7382 9.07225 15.2756 9.65185 14.871L11.633 13.5004H14.25C14.4637 13.5004 14.6663 13.4801 14.8639 13.4511L18.6386 19.7597L14 22.1335ZM19.0903 19.5412L15.3794 13.3393C17.3033 12.787 18.442 10.8651 19.4653 9.12731C19.5117 9.04896 19.5068 8.94396 19.4609 8.86586C19.1321 8.30781 18.7905 7.73041 18.4153 7.18436C18.8724 6.48291 19.2485 5.77866 19.5312 5.08266L27.2992 18.0502C23.6604 17.6645 19.9866 19.1479 19.0903 19.5412ZM13.2788 7.34691L9.44335 11.0154C9.395 11.0618 9.3325 11.0847 9.2705 11.0847C9.2046 11.0847 9.13915 11.0588 9.08985 11.0076C8.99465 10.9077 8.99805 10.7495 9.09765 10.6541L12.9331 6.98561C13.0332 6.89016 13.1909 6.89406 13.2866 6.99341C13.3818 7.09326 13.3784 7.25146 13.2788 7.34691ZM10 8.50046C10.5512 8.50046 11 8.05196 11 7.50046C11 6.94896 10.5512 6.50046 10 6.50046C9.44875 6.50046 9 6.94896 9 7.50046C9 8.05196 9.44875 8.50046 10 8.50046ZM10 7.00046C10.2759 7.00046 10.5 7.22481 10.5 7.50046C10.5 7.77611 10.2759 8.00046 10 8.00046C9.7241 8.00046 9.5 7.77611 9.5 7.50046C9.5 7.22481 9.7241 7.00046 10 7.00046ZM12.5 9.50046C11.9488 9.50046 11.5 9.94896 11.5 10.5005C11.5 11.052 11.9488 11.5005 12.5 11.5005C13.0513 11.5005 13.5 11.052 13.5 10.5005C13.5 9.94896 13.0513 9.50046 12.5 9.50046ZM12.5 11.0005C12.2241 11.0005 12 10.7761 12 10.5005C12 10.2248 12.2241 10.0005 12.5 10.0005C12.7759 10.0005 13 10.2248 13 10.5005C13 10.7761 12.7759 11.0005 12.5 11.0005Z" stroke="#787486" stroke-width="0.6" mask="url(#path-1-outside-1_12_1750)"/>
</svg>
