<svg width="27" height="27" viewBox="0 0 27 27" fill="none" xmlns="http://www.w3.org/2000/svg">
<path d="M13.3618 16.7247C15.2066 16.7247 16.7022 15.2272 16.7022 13.3799C16.7022 11.5327 15.2066 10.0352 13.3618 10.0352C11.517 10.0352 10.0215 11.5327 10.0215 13.3799C10.0215 15.2272 11.517 16.7247 13.3618 16.7247Z" stroke="#787486" stroke-width="1.5" stroke-miterlimit="10" stroke-linecap="round" stroke-linejoin="round"/>
<path d="M2.22656 14.3603V12.398C2.22656 11.2385 3.17299 10.2797 4.34211 10.2797C6.35744 10.2797 7.18139 8.85257 6.16816 7.10213C5.58917 6.09869 5.93434 4.79422 6.94757 4.21446L8.87383 3.11068C9.75345 2.58666 10.8892 2.89884 11.4125 3.77964L11.535 3.99147C12.5371 5.74191 14.185 5.74191 15.1982 3.99147L15.3207 3.77964C15.844 2.89884 16.9797 2.58666 17.8593 3.11068L19.7856 4.21446C20.7988 4.79422 21.144 6.09869 20.565 7.10213C19.5518 8.85257 20.3757 10.2797 22.3911 10.2797C23.549 10.2797 24.5066 11.2274 24.5066 12.398V14.3603C24.5066 15.5199 23.5602 16.4787 22.3911 16.4787C20.3757 16.4787 19.5518 17.9058 20.565 19.6562C21.144 20.6708 20.7988 21.9641 19.7856 22.5439L17.8593 23.6477C16.9797 24.1717 15.844 23.8595 15.3207 22.9787L15.1982 22.7669C14.1961 21.0165 12.5482 21.0165 11.535 22.7669L11.4125 22.9787C10.8892 23.8595 9.75345 24.1717 8.87383 23.6477L6.94757 22.5439C5.93434 21.9641 5.58917 20.6597 6.16816 19.6562C7.18139 17.9058 6.35744 16.4787 4.34211 16.4787C3.17299 16.4787 2.22656 15.5199 2.22656 14.3603Z" stroke="#787486" stroke-width="1.5" stroke-miterlimit="10" stroke-linecap="round" stroke-linejoin="round"/>
</svg>
